<mxfile host="65bd71144e">
    <diagram id="SKP93vQWdvAe20Zp62b-" name="Pagina-1">
        <mxGraphModel dx="764" dy="563" grid="1" gridSize="10" guides="1" tooltips="1" connect="1" arrows="1" fold="1" page="1" pageScale="1" pageWidth="827" pageHeight="1169" math="0" shadow="0">
            <root>
                <mxCell id="0"/>
                <mxCell id="1" parent="0"/>
                <mxCell id="5VDgApkqLOFfq6V8ZcV0-2" style="rounded=0;orthogonalLoop=1;jettySize=auto;html=1;endArrow=none;endFill=0;entryX=0;entryY=1;entryDx=0;entryDy=0;exitX=0.5;exitY=0.5;exitDx=0;exitDy=0;exitPerimeter=0;" parent="1" source="5VDgApkqLOFfq6V8ZcV0-1" target="5VDgApkqLOFfq6V8ZcV0-3" edge="1">
                    <mxGeometry relative="1" as="geometry">
                        <mxPoint x="200" y="120" as="targetPoint"/>
                    </mxGeometry>
                </mxCell>
                <mxCell id="5VDgApkqLOFfq6V8ZcV0-6" style="rounded=0;orthogonalLoop=1;jettySize=auto;html=1;endArrow=none;endFill=0;exitX=0.5;exitY=0.5;exitDx=0;exitDy=0;exitPerimeter=0;entryX=0;entryY=0.5;entryDx=0;entryDy=0;" parent="1" source="5VDgApkqLOFfq6V8ZcV0-1" target="5VDgApkqLOFfq6V8ZcV0-7" edge="1">
                    <mxGeometry relative="1" as="geometry">
                        <mxPoint x="240" y="230" as="targetPoint"/>
                        <mxPoint x="110" y="310" as="sourcePoint"/>
                    </mxGeometry>
                </mxCell>
                <mxCell id="5VDgApkqLOFfq6V8ZcV0-1" value="Utente anonimo" style="shape=umlActor;verticalLabelPosition=bottom;verticalAlign=top;html=1;outlineConnect=0;" parent="1" vertex="1">
                    <mxGeometry x="170" y="210" width="30" height="60" as="geometry"/>
                </mxCell>
                <mxCell id="5VDgApkqLOFfq6V8ZcV0-4" style="rounded=0;orthogonalLoop=1;jettySize=auto;html=1;endArrow=none;endFill=0;entryX=0.5;entryY=0.5;entryDx=0;entryDy=0;entryPerimeter=0;startArrow=none;" parent="1" source="5VDgApkqLOFfq6V8ZcV0-13" target="5VDgApkqLOFfq6V8ZcV0-5" edge="1">
                    <mxGeometry relative="1" as="geometry">
                        <mxPoint x="520" y="140" as="targetPoint"/>
                    </mxGeometry>
                </mxCell>
                <mxCell id="5VDgApkqLOFfq6V8ZcV0-3" value="Registrazione cliente" style="ellipse;whiteSpace=wrap;html=1;" parent="1" vertex="1">
                    <mxGeometry x="250" y="140" width="90" height="60" as="geometry"/>
                </mxCell>
                <mxCell id="5VDgApkqLOFfq6V8ZcV0-7" value="Autenticazione" style="ellipse;whiteSpace=wrap;html=1;" parent="1" vertex="1">
                    <mxGeometry x="250" y="210" width="90" height="60" as="geometry"/>
                </mxCell>
                <mxCell id="LFX6a2vSH7ptxkuxKLWu-2" style="rounded=0;orthogonalLoop=1;jettySize=auto;html=1;entryX=1;entryY=0;entryDx=0;entryDy=0;endArrow=none;endFill=0;exitX=0.5;exitY=0.5;exitDx=0;exitDy=0;exitPerimeter=0;" parent="1" source="5VDgApkqLOFfq6V8ZcV0-5" target="5VDgApkqLOFfq6V8ZcV0-17" edge="1">
                    <mxGeometry relative="1" as="geometry">
                        <mxPoint x="465" y="290" as="sourcePoint"/>
                    </mxGeometry>
                </mxCell>
                <mxCell id="3" style="edgeStyle=none;html=1;exitX=0.5;exitY=0.5;exitDx=0;exitDy=0;exitPerimeter=0;entryX=1;entryY=1;entryDx=0;entryDy=0;endArrow=none;endFill=0;" edge="1" parent="1" source="5VDgApkqLOFfq6V8ZcV0-5" target="5VDgApkqLOFfq6V8ZcV0-3">
                    <mxGeometry relative="1" as="geometry"/>
                </mxCell>
                <mxCell id="5VDgApkqLOFfq6V8ZcV0-5" value="Ardeeno DataLayer" style="shape=umlActor;verticalLabelPosition=bottom;verticalAlign=top;html=1;outlineConnect=0;" parent="1" vertex="1">
                    <mxGeometry x="580" y="210" width="30" height="60" as="geometry"/>
                </mxCell>
                <mxCell id="5VDgApkqLOFfq6V8ZcV0-10" value="" style="rounded=0;orthogonalLoop=1;jettySize=auto;html=1;endArrow=none;endFill=0;entryX=0.5;entryY=0.5;entryDx=0;entryDy=0;entryPerimeter=0;" parent="1" source="5VDgApkqLOFfq6V8ZcV0-7" target="5VDgApkqLOFfq6V8ZcV0-5" edge="1">
                    <mxGeometry relative="1" as="geometry">
                        <mxPoint x="465" y="140" as="targetPoint"/>
                        <mxPoint x="360" y="300" as="sourcePoint"/>
                    </mxGeometry>
                </mxCell>
                <mxCell id="5VDgApkqLOFfq6V8ZcV0-12" value="&amp;lt;include&amp;gt;" style="html=1;verticalAlign=bottom;endArrow=open;dashed=1;endSize=8;rounded=0;exitX=1;exitY=0.5;exitDx=0;exitDy=0;endFill=0;" parent="1" source="5VDgApkqLOFfq6V8ZcV0-3" target="5VDgApkqLOFfq6V8ZcV0-13" edge="1">
                    <mxGeometry x="-0.1885" y="-9" relative="1" as="geometry">
                        <mxPoint x="300" y="50" as="sourcePoint"/>
                        <mxPoint x="440" y="40" as="targetPoint"/>
                        <mxPoint as="offset"/>
                    </mxGeometry>
                </mxCell>
                <mxCell id="5VDgApkqLOFfq6V8ZcV0-14" style="rounded=0;orthogonalLoop=1;jettySize=auto;html=1;endArrow=none;endFill=0;entryX=0.5;entryY=0.5;entryDx=0;entryDy=0;entryPerimeter=0;exitX=0;exitY=1;exitDx=0;exitDy=0;" parent="1" source="5VDgApkqLOFfq6V8ZcV0-13" target="5VDgApkqLOFfq6V8ZcV0-15" edge="1">
                    <mxGeometry relative="1" as="geometry">
                        <mxPoint x="640" y="40" as="targetPoint"/>
                    </mxGeometry>
                </mxCell>
                <mxCell id="LFX6a2vSH7ptxkuxKLWu-3" style="edgeStyle=none;rounded=0;orthogonalLoop=1;jettySize=auto;html=1;exitX=0.5;exitY=0;exitDx=0;exitDy=0;exitPerimeter=0;entryX=0.5;entryY=1;entryDx=0;entryDy=0;endArrow=none;endFill=0;" parent="1" source="5VDgApkqLOFfq6V8ZcV0-15" target="5VDgApkqLOFfq6V8ZcV0-7" edge="1">
                    <mxGeometry relative="1" as="geometry"/>
                </mxCell>
                <mxCell id="2" style="edgeStyle=none;html=1;exitX=0.5;exitY=0;exitDx=0;exitDy=0;exitPerimeter=0;entryX=0.231;entryY=0.93;entryDx=0;entryDy=0;curved=1;endArrow=none;endFill=0;entryPerimeter=0;" parent="1" source="5VDgApkqLOFfq6V8ZcV0-15" target="5VDgApkqLOFfq6V8ZcV0-3" edge="1">
                    <mxGeometry relative="1" as="geometry">
                        <Array as="points">
                            <mxPoint x="180" y="250"/>
                        </Array>
                    </mxGeometry>
                </mxCell>
                <mxCell id="5VDgApkqLOFfq6V8ZcV0-15" value="Gmail" style="shape=umlActor;verticalLabelPosition=bottom;verticalAlign=top;html=1;outlineConnect=0;" parent="1" vertex="1">
                    <mxGeometry x="280" y="290" width="30" height="60" as="geometry"/>
                </mxCell>
                <mxCell id="5VDgApkqLOFfq6V8ZcV0-16" value="&amp;lt;extend&amp;gt;" style="html=1;verticalAlign=bottom;endArrow=open;dashed=1;endSize=8;rounded=0;endFill=0;entryX=0.982;entryY=0.757;entryDx=0;entryDy=0;exitX=0;exitY=0.5;exitDx=0;exitDy=0;entryPerimeter=0;" parent="1" source="5VDgApkqLOFfq6V8ZcV0-17" target="5VDgApkqLOFfq6V8ZcV0-7" edge="1">
                    <mxGeometry x="-0.0517" y="9" relative="1" as="geometry">
                        <mxPoint x="440" y="400" as="sourcePoint"/>
                        <mxPoint x="370" y="350" as="targetPoint"/>
                        <mxPoint as="offset"/>
                    </mxGeometry>
                </mxCell>
                <mxCell id="5VDgApkqLOFfq6V8ZcV0-18" style="rounded=0;orthogonalLoop=1;jettySize=auto;html=1;entryX=0.5;entryY=0.5;entryDx=0;entryDy=0;entryPerimeter=0;endArrow=none;endFill=0;exitX=0;exitY=0.5;exitDx=0;exitDy=0;" parent="1" source="5VDgApkqLOFfq6V8ZcV0-17" target="5VDgApkqLOFfq6V8ZcV0-15" edge="1">
                    <mxGeometry relative="1" as="geometry"/>
                </mxCell>
                <mxCell id="5VDgApkqLOFfq6V8ZcV0-17" value="Recupero password" style="ellipse;whiteSpace=wrap;html=1;" parent="1" vertex="1">
                    <mxGeometry x="420" y="290" width="90" height="60" as="geometry"/>
                </mxCell>
                <mxCell id="5VDgApkqLOFfq6V8ZcV0-13" value="Conferma email" style="ellipse;whiteSpace=wrap;html=1;" parent="1" vertex="1">
                    <mxGeometry x="420" y="140" width="90" height="60" as="geometry"/>
                </mxCell>
            </root>
        </mxGraphModel>
    </diagram>
</mxfile>